<svg width="499" height="451" viewBox="0 0 499 451" fill="none" xmlns="http://www.w3.org/2000/svg">
<g clip-path="url(#clip0_16_190)">
<path d="M95.1651 307.898C94.5278 308.2 93.8132 308.298 93.1183 308.18C92.4233 308.061 91.7814 307.731 91.2797 307.235C90.778 306.739 90.4406 306.1 90.3133 305.405C90.186 304.71 90.275 303.993 90.5681 303.35C90.5152 302.998 90.4772 302.745 90.4243 302.393C90.3667 302.336 90.3091 302.279 90.2512 302.221C84.4202 296.465 74.542 300.659 74.5609 308.861C74.5776 316.141 73.8967 323.726 75.8263 330.622C76.6805 333.67 78.0558 336.547 79.891 339.123C68.3511 328.455 59.2351 315.425 53.1611 300.916C51.6406 297.274 50.3246 293.549 49.2192 289.76C48.3156 286.652 47.5502 283.511 46.9231 280.337C43.5389 263.108 44.2812 245.32 49.089 228.434C52.8581 223.719 55.0946 217.96 55.4971 211.933C55.6487 209.763 55.4862 207.583 55.0145 205.46C54.494 205.763 53.953 206.043 53.4174 206.31C53.2495 206.391 53.0727 206.475 52.905 206.556L52.8415 206.586C52.2475 206.867 51.5852 206.97 50.9344 206.882C50.2835 206.794 49.6718 206.52 49.173 206.092C48.6741 205.664 48.3093 205.101 48.1225 204.47C47.9357 203.839 47.9349 203.167 48.1201 202.536C48.2356 202.143 48.3513 201.75 48.4672 201.357C48.6397 200.754 48.825 200.155 48.9975 199.552C49.0213 199.491 49.0415 199.43 49.0583 199.367C49.2586 198.677 49.4625 197.996 49.6628 197.307C48.4129 196.445 46.9813 195.884 45.4796 195.668C40.2984 194.968 35.2615 199.065 33.8282 204.098C32.386 209.134 34.0246 214.665 37.0378 218.941C39.6147 222.602 43.1082 225.486 46.7701 228.087C46.665 228.471 46.5473 228.85 46.4423 229.234C44.5334 236.279 43.318 243.495 42.8137 250.778C40.7343 243.727 37.0141 237.271 31.9592 231.941C27.0515 227.056 20.3959 223.999 14.2321 220.581C6.8285 216.475 -1.99061 223.313 0.39892 231.448C0.42206 231.527 0.445381 231.605 0.468887 231.684C1.2093 231.772 1.94574 231.886 2.67818 232.026C3.60037 232.206 4.44654 232.662 5.10586 233.333C5.76519 234.004 6.20689 234.859 6.3731 235.786C6.53931 236.712 6.42228 237.668 6.03733 238.527C5.65239 239.386 5.01751 240.108 4.21584 240.6L4.13375 240.65C5.24961 242.725 6.52125 244.711 7.93765 246.593C11.9488 251.821 16.9945 256.163 22.7585 259.345C28.5224 262.528 34.8804 264.483 41.4336 265.088C41.8613 265.122 42.2799 265.159 42.7037 265.183C43.262 275.054 45.0987 284.811 48.1677 294.207C49.9955 299.743 52.2671 305.122 54.9602 310.292L54.8539 310.113C51.2121 304.636 45.7957 300.586 39.5194 298.647C30.2323 295.851 19.5907 297.846 10.2243 296.395C5.71564 295.696 2.30159 300.469 4.66777 304.378C4.70553 304.44 4.74347 304.503 4.78157 304.565C6.08267 304.553 7.38323 304.623 8.67572 304.773C9.41617 304.861 10.1526 304.975 10.885 305.114C11.8072 305.295 12.6534 305.751 13.3127 306.422C13.9721 307.093 14.4138 307.948 14.58 308.875C14.7462 309.801 14.6292 310.757 14.2442 311.616C13.8593 312.475 13.2244 313.197 12.4227 313.689L12.3405 313.739C12.2811 313.775 12.2307 313.806 12.1714 313.842C15.9668 317.592 20.378 320.659 25.2118 322.91C31.1455 325.599 37.5648 327.046 44.0762 327.161C50.5876 327.276 57.0538 326.057 63.0784 323.579L63.0875 323.575C67.6806 329.995 72.9271 335.919 78.7424 341.252L103.933 330.702C103.907 330.384 103.867 330.06 103.832 329.745C101.561 330.869 99.162 331.709 96.6876 332.249C97.5982 329.167 98.5012 326.068 99.4118 322.987C99.4356 322.927 99.4559 322.865 99.4726 322.802C99.9301 321.229 100.4 319.661 100.858 318.088L100.858 318.086C99.4048 314.459 97.4918 311.035 95.1662 307.898L95.1651 307.898ZM42.6029 263.11L42.6087 263.087L42.6104 263.129L42.6029 263.11ZM58.0441 315.856L57.6237 315.458C57.4856 315.101 57.3384 314.748 57.1784 314.39C57.1369 314.29 57.0774 314.199 57.0358 314.099C57.3774 314.689 57.71 315.283 58.0607 315.87L58.0441 315.856Z" fill="#F2F2F2"/>
<path d="M326.332 134.411C325.393 138.204 324.946 142.103 325.001 146.011L325.001 146.013C326.029 147.287 327.066 148.552 328.093 149.827C328.133 149.879 328.176 149.928 328.221 149.974C330.246 152.465 332.272 154.976 334.298 157.467C331.807 157.925 329.27 158.077 326.743 157.918C326.831 158.222 326.919 158.536 327.017 158.84H354.319C357.633 151.672 360.194 144.179 361.962 136.48H361.972C368.484 136.439 374.919 135.065 380.883 132.443C386.847 129.821 392.213 126.005 396.653 121.231C400.247 117.287 403.137 112.752 405.196 107.825C405.127 107.815 405.069 107.806 405 107.796L404.905 107.781C403.976 107.638 403.113 107.216 402.427 106.572C401.741 105.929 401.265 105.092 401.062 104.173C400.859 103.253 400.938 102.294 401.288 101.42C401.638 100.546 402.243 99.7988 403.025 99.2757C403.646 98.8639 404.282 98.4742 404.932 98.1067C406.066 97.4686 407.24 96.902 408.445 96.4102C408.456 96.338 408.467 96.2659 408.478 96.1937C409.157 91.6726 404.171 88.5883 400.279 90.9751C392.196 95.9333 381.609 98.2048 374.116 104.373C369.071 108.587 365.632 114.417 364.379 120.878L364.35 121.084C364.846 115.274 364.872 109.433 364.428 103.618C363.644 93.7626 361.585 84.051 358.302 74.7276C358.684 74.5413 359.056 74.3452 359.437 74.1491C365.251 71.0587 370.365 66.798 374.459 61.6341C378.553 56.4703 381.538 50.5146 383.227 44.1405C383.81 41.8573 384.219 39.5329 384.45 37.1875L384.355 37.1728C383.426 37.0294 382.562 36.6081 381.877 35.9642C381.191 35.3204 380.715 34.484 380.512 33.5646C380.309 32.6452 380.387 31.6858 380.738 30.8119C381.088 29.9381 381.693 29.1907 382.474 28.6675C383.096 28.2557 383.732 27.866 384.381 27.4985C384.373 27.4169 384.364 27.3353 384.355 27.2538C383.43 18.825 372.662 15.9231 367.41 22.5723C363.038 28.1079 358.074 33.5008 355.425 39.904C352.812 46.7748 351.863 54.1692 352.658 61.4789C349.391 54.9541 345.493 48.7658 341.021 43.003C340.776 42.6891 340.522 42.3851 340.277 42.0712C342.655 38.2565 344.768 34.2456 345.737 29.8718C346.872 24.7625 346.256 19.0255 342.988 14.9362C339.729 10.8468 333.505 9.01296 328.994 11.6608C327.691 12.4404 326.586 13.511 325.764 14.789C326.215 15.348 326.665 15.8972 327.115 16.4561C327.155 16.5076 327.197 16.5567 327.242 16.6033C327.634 17.0936 328.035 17.5741 328.426 18.0645C328.684 18.382 328.942 18.6997 329.2 19.0176C329.614 19.5286 329.871 20.1486 329.942 20.8029C330.012 21.4572 329.892 22.118 329.597 22.7056C329.301 23.2933 328.842 23.7828 328.276 24.1152C327.709 24.4476 327.058 24.6088 326.402 24.5793L326.332 24.5762C326.146 24.5663 325.95 24.5565 325.764 24.5467C325.168 24.5075 324.561 24.4585 323.964 24.38C324.346 26.5211 325.034 28.5954 326.009 30.5387C328.7 35.9445 332.979 40.3939 338.271 43.2874C349.204 57.0097 356.733 73.1353 360.24 90.3399C360.886 93.5075 361.388 96.7012 361.747 99.9211C362.185 103.845 362.404 107.79 362.403 111.738C362.381 127.472 358.983 143.017 352.441 157.32C353.142 154.233 353.305 151.048 352.92 147.905C352.047 140.796 348.5 134.061 345.715 127.338C342.576 119.763 331.848 119.711 328.683 127.275C328.651 127.35 328.62 127.425 328.589 127.5C328.676 127.845 328.738 128.093 328.825 128.439C329.342 128.918 329.701 129.546 329.85 130.236C330 130.926 329.935 131.646 329.663 132.298C329.391 132.95 328.926 133.502 328.33 133.88C327.734 134.258 327.037 134.443 326.333 134.411L326.332 134.411ZM357.598 72.7957L357.583 72.7566L357.598 72.7761V72.7957ZM363.636 127.429C363.733 126.752 363.812 126.075 363.9 125.399C363.9 125.507 363.88 125.615 363.88 125.722C363.87 126.115 363.87 126.497 363.88 126.88L363.645 127.409L363.636 127.429Z" fill="#F2F2F2"/>
<path d="M298.826 303.011H215.298C214.116 303.012 212.983 303.484 212.149 304.323C211.314 305.161 210.846 306.297 210.848 307.482V439.713H303.287V307.482C303.288 306.894 303.172 306.313 302.948 305.77C302.724 305.228 302.396 304.735 301.981 304.319C301.567 303.904 301.075 303.575 300.533 303.35C299.992 303.126 299.412 303.01 298.826 303.011ZM257.343 378.143C254.731 378.131 252.229 377.086 250.382 375.235C248.535 373.383 247.492 370.876 247.479 368.259V353.007C247.479 350.385 248.519 347.871 250.368 346.018C252.218 344.164 254.727 343.123 257.343 343.123C259.959 343.123 262.467 344.164 264.317 346.018C266.167 347.871 267.206 350.385 267.206 353.007V368.259C267.194 370.876 266.151 373.383 264.304 375.235C262.457 377.086 259.955 378.131 257.343 378.143Z" fill="#E6E6E6"/>
<path d="M210.561 435.484V448.241C210.562 448.902 210.825 449.536 211.291 450.003C211.757 450.471 212.39 450.734 213.049 450.735H301.085C301.744 450.732 302.375 450.468 302.841 450.001C303.307 449.534 303.57 448.902 303.574 448.241V435.484L210.561 435.484Z" fill="#CCCCCC"/>
<path d="M437.141 96.6485H80.0907C77.0231 96.6533 74.0825 97.8767 71.9134 100.05C69.7442 102.224 68.5235 105.171 68.5186 108.245V349.699C68.5215 352.773 69.7417 355.721 71.9112 357.896C74.0808 360.07 77.0225 361.292 80.0907 361.295H437.141C440.209 361.292 443.151 360.07 445.321 357.896C447.49 355.721 448.71 352.773 448.713 349.699V108.245C448.708 105.171 447.488 102.224 445.318 100.05C443.149 97.8767 440.209 96.6533 437.141 96.6485Z" fill="#E6E6E6"/>
<path d="M434.159 105.021H83.0747C81.4317 105.025 79.8574 105.682 78.6969 106.848C77.5365 108.013 76.8848 109.593 76.8848 111.239V346.706C76.8866 348.35 77.5394 349.927 78.6998 351.09C79.8603 352.253 81.4336 352.907 83.0747 352.909H434.159C435.8 352.907 437.374 352.253 438.534 351.09C439.694 349.927 440.347 348.35 440.349 346.706V111.239C440.349 109.593 439.697 108.013 438.537 106.848C437.376 105.682 435.802 105.025 434.159 105.021Z" fill="white"/>
<path d="M121.583 339.41C121.591 344.019 120.771 348.592 119.164 352.91H83.0735C81.433 352.907 79.8605 352.253 78.7005 351.091C77.5405 349.928 76.8876 348.352 76.8848 346.708V301.218C78.9013 300.892 80.9407 300.728 82.9834 300.729C88.0525 300.728 93.0719 301.728 97.7552 303.672C102.438 305.616 106.694 308.465 110.278 312.057C113.862 315.649 116.706 319.914 118.645 324.607C120.585 329.3 121.583 334.33 121.583 339.41Z" fill="#DD4A48"/>
<path d="M440.349 111.239V316.19C413.335 324.081 384.491 322.936 358.185 312.931C331.878 302.925 309.541 284.602 294.555 260.736C279.568 236.87 272.75 208.761 275.13 180.664C277.511 152.568 288.962 126.013 307.749 105.021H434.159C435.802 105.025 437.376 105.682 438.536 106.848C439.697 108.013 440.349 109.593 440.349 111.239Z" fill="#E6E6E6"/>
<path d="M416.512 137.467H88.0015C87.6599 137.46 87.3346 137.319 87.0956 137.074C86.8565 136.829 86.7227 136.5 86.7227 136.158C86.7227 135.815 86.8565 135.486 87.0956 135.242C87.3346 134.997 87.6599 134.856 88.0015 134.849H416.512C416.854 134.856 417.179 134.997 417.418 135.242C417.657 135.486 417.791 135.815 417.791 136.158C417.791 136.5 417.657 136.829 417.418 137.074C417.179 137.319 416.854 137.46 416.512 137.467Z" fill="#CACACA"/>
<path d="M110.363 128.164C114.591 128.164 118.019 124.653 118.019 120.321C118.019 115.989 114.591 112.477 110.363 112.477C106.135 112.477 102.707 115.989 102.707 120.321C102.707 124.653 106.135 128.164 110.363 128.164Z" fill="#3F3D56"/>
<path d="M136.811 128.164C141.04 128.164 144.467 124.653 144.467 120.321C144.467 115.989 141.04 112.477 136.811 112.477C132.583 112.477 129.155 115.989 129.155 120.321C129.155 124.653 132.583 128.164 136.811 128.164Z" fill="#3F3D56"/>
<path d="M163.26 128.164C167.488 128.164 170.916 124.653 170.916 120.321C170.916 115.989 167.488 112.477 163.26 112.477C159.031 112.477 155.604 115.989 155.604 120.321C155.604 124.653 159.031 128.164 163.26 128.164Z" fill="#3F3D56"/>
<path d="M400.587 114.421H381.8C381.427 114.429 381.073 114.582 380.812 114.849C380.551 115.115 380.405 115.474 380.405 115.847C380.405 116.22 380.551 116.579 380.812 116.845C381.073 117.112 381.427 117.265 381.8 117.273H400.587C400.96 117.265 401.314 117.112 401.575 116.845C401.836 116.579 401.982 116.22 401.982 115.847C401.982 115.474 401.836 115.115 401.575 114.849C401.314 114.582 400.96 114.429 400.587 114.421Z" fill="#3F3D56"/>
<path d="M400.587 119.773H381.8C381.427 119.78 381.073 119.934 380.812 120.2C380.551 120.467 380.405 120.825 380.405 121.198C380.405 121.571 380.551 121.93 380.812 122.196C381.073 122.463 381.427 122.616 381.8 122.624H400.587C400.96 122.616 401.314 122.463 401.575 122.196C401.836 121.93 401.982 121.571 401.982 121.198C401.982 120.825 401.836 120.467 401.575 120.2C401.314 119.934 400.96 119.78 400.587 119.773Z" fill="#3F3D56"/>
<path d="M400.587 125.117H381.8C381.427 125.124 381.073 125.278 380.812 125.544C380.551 125.811 380.405 126.169 380.405 126.542C380.405 126.916 380.551 127.274 380.812 127.541C381.073 127.807 381.427 127.961 381.8 127.968H400.587C400.96 127.961 401.314 127.807 401.575 127.541C401.836 127.274 401.982 126.916 401.982 126.542C401.982 126.169 401.836 125.811 401.575 125.544C401.314 125.278 400.96 125.124 400.587 125.117Z" fill="#3F3D56"/>
<path d="M225.597 46.9431C226.754 44.4986 221.392 39.523 213.622 35.8298C205.852 32.1366 198.615 31.1244 197.458 33.5689C196.301 36.0134 201.662 40.989 209.433 44.6822C217.203 48.3754 224.44 49.3876 225.597 46.9431Z" fill="#2F2E41"/>
<path d="M289.725 72.1213C291.795 70.3844 288.998 63.6196 283.477 57.0117C277.956 50.4037 271.802 46.4549 269.732 48.1918C267.662 49.9286 270.46 56.6934 275.981 63.3014C281.502 69.9093 287.655 73.8581 289.725 72.1213Z" fill="#2F2E41"/>
<path d="M246.605 85.947C263.805 85.947 277.748 71.9741 277.748 54.7375C277.748 37.501 263.805 23.528 246.605 23.528C229.405 23.528 215.462 37.501 215.462 54.7375C215.462 71.9741 229.405 85.947 246.605 85.947Z" fill="#2F2E41"/>
<path d="M259.786 79.231H250.325V96.2184H259.786V79.231Z" fill="#2F2E41"/>
<path d="M240.864 79.231H231.403V96.2184H240.864V79.231Z" fill="#2F2E41"/>
<path d="M251.902 99.3789C256.256 99.3789 259.786 98.0523 259.786 96.416C259.786 94.7796 256.256 93.453 251.902 93.453C247.548 93.453 244.018 94.7796 244.018 96.416C244.018 98.0523 247.548 99.3789 251.902 99.3789Z" fill="#2F2E41"/>
<path d="M232.98 98.9838C237.334 98.9838 240.864 97.6573 240.864 96.0209C240.864 94.3845 237.334 93.058 232.98 93.058C228.626 93.058 225.096 94.3845 225.096 96.0209C225.096 97.6573 228.626 98.9838 232.98 98.9838Z" fill="#2F2E41"/>
<path d="M236.826 15.5062C239.607 4.28324 251.882 -2.32122 264.243 0.754708C276.604 3.83064 284.371 15.4222 281.59 26.6452C278.809 37.8681 269.583 37.9044 257.222 34.8284C244.861 31.7524 234.045 26.7291 236.826 15.5062Z" fill="#E6E6E6"/>
<path d="M241.949 58.5573C247.683 58.5573 252.332 53.8987 252.332 48.152C252.332 42.4054 247.683 37.7468 241.949 37.7468C236.214 37.7468 231.565 42.4054 231.565 48.152C231.565 53.8987 236.214 58.5573 241.949 58.5573Z" fill="white"/>
<path d="M241.297 55.8621C243.208 55.8621 244.758 54.3092 244.758 52.3937C244.758 50.4781 243.208 48.9252 241.297 48.9252C239.386 48.9252 237.836 50.4781 237.836 52.3937C237.836 54.3092 239.386 55.8621 241.297 55.8621Z" fill="#3F3D56"/>
<path d="M255.142 66.9908C255.827 70.7599 246.653 77.2117 242.892 77.8979C241.086 78.2274 239.223 77.8243 237.713 76.7774C236.204 75.7306 235.171 74.1256 234.842 72.3156L234.84 72.3022C234.159 68.5323 237.067 67.1983 240.829 66.5159C244.591 65.8334 254.461 63.221 255.142 66.9908Z" fill="white"/>
<path d="M365.459 285.615C370.7 278.782 373.213 271.906 371.073 270.257C368.932 268.609 362.948 272.811 357.707 279.644C352.466 286.477 349.953 293.353 352.094 295.002C354.234 296.651 360.218 292.448 365.459 285.615Z" fill="#2F2E41"/>
<path d="M393.985 308.42C411.185 308.42 425.128 294.447 425.128 277.211C425.128 259.974 411.185 246.001 393.985 246.001C376.785 246.001 362.842 259.974 362.842 277.211C362.842 294.447 376.785 308.42 393.985 308.42Z" fill="#2F2E41"/>
<path d="M408.176 301.704H398.715V318.692H408.176V301.704Z" fill="#2F2E41"/>
<path d="M389.254 301.704H379.793V318.692H389.254V301.704Z" fill="#2F2E41"/>
<path d="M400.293 321.852C404.647 321.852 408.177 320.526 408.177 318.889C408.177 317.253 404.647 315.926 400.293 315.926C395.938 315.926 392.408 317.253 392.408 318.889C392.408 320.526 395.938 321.852 400.293 321.852Z" fill="#2F2E41"/>
<path d="M381.37 321.457C385.724 321.457 389.254 320.131 389.254 318.494C389.254 316.858 385.724 315.531 381.37 315.531C377.015 315.531 373.485 316.858 373.485 318.494C373.485 320.131 377.015 321.457 381.37 321.457Z" fill="#2F2E41"/>
<path d="M393.197 279.976C399.075 279.976 403.84 275.2 403.84 269.309C403.84 263.418 399.075 258.643 393.197 258.643C387.318 258.643 382.553 263.418 382.553 269.309C382.553 275.2 387.318 279.976 393.197 279.976Z" fill="white"/>
<path d="M392.473 277.938C394.432 277.938 396.021 276.346 396.021 274.382C396.021 272.418 394.432 270.827 392.473 270.827C390.513 270.827 388.925 272.418 388.925 274.382C388.925 276.346 390.513 277.938 392.473 277.938Z" fill="#3F3D56"/>
<path d="M424.194 248.187C426.709 236.901 418.671 225.497 406.24 222.715C393.81 219.934 381.694 226.828 379.18 238.114C376.665 249.4 384.903 253.562 397.334 256.344C409.764 259.125 421.68 259.472 424.194 248.187Z" fill="#DD4A48"/>
<path d="M430.795 304.308C433.225 303.127 432.152 295.884 428.399 288.129C424.647 280.375 419.635 275.045 417.206 276.226C414.777 277.406 415.85 284.65 419.602 292.404C423.355 300.159 428.366 305.488 430.795 304.308Z" fill="#2F2E41"/>
<path d="M409.282 288.47C409.282 291.524 401.434 297.556 392.725 297.556C384.016 297.556 375.851 288.956 375.851 285.902C375.851 282.847 384.016 286.494 392.725 286.494C401.434 286.494 409.282 285.415 409.282 288.47Z" fill="white"/>
<path d="M370.637 413.497C387.837 413.497 401.78 399.524 401.78 382.288C401.78 365.051 387.837 351.078 370.637 351.078C353.437 351.078 339.494 365.051 339.494 382.288C339.494 399.524 353.437 413.497 370.637 413.497Z" fill="#2F2E41"/>
<path d="M365.907 406.781H356.445V423.769H365.907V406.781Z" fill="#2F2E41"/>
<path d="M384.828 406.781H375.367V423.769H384.828V406.781Z" fill="#2F2E41"/>
<path d="M370.735 429.514C371.432 428.034 368.806 425.324 364.868 423.461C360.931 421.598 357.174 421.287 356.476 422.766C355.779 424.246 358.406 426.956 362.343 428.819C366.281 430.683 370.038 430.993 370.735 429.514Z" fill="#2F2E41"/>
<path d="M389.836 428.712C390.449 427.196 387.675 424.638 383.639 422.999C379.604 421.36 375.835 421.261 375.222 422.778C374.608 424.294 377.383 426.852 381.418 428.491C385.454 430.13 389.223 430.229 389.836 428.712Z" fill="#2F2E41"/>
<path d="M340.427 353.264C337.913 341.978 345.951 330.574 358.381 327.792C370.812 325.011 382.927 331.905 385.442 343.191C387.957 354.477 379.718 358.639 367.288 361.421C354.858 364.202 342.942 364.549 340.427 353.264Z" fill="#DD4A48"/>
<path d="M407.657 369.477C410.765 360.437 410.99 352.315 408.158 351.337C405.326 350.359 400.51 356.895 397.401 365.935C394.292 374.976 394.067 383.097 396.899 384.076C399.731 385.054 404.548 378.518 407.657 369.477Z" fill="#2F2E41"/>
<path d="M345.534 379.229C347.653 377.108 343.904 369.904 337.159 363.14C330.414 356.376 323.229 352.612 321.11 354.734C318.991 356.856 322.741 364.059 329.486 370.824C336.23 377.588 343.415 381.351 345.534 379.229Z" fill="#2F2E41"/>
<path d="M134.954 437.568C152.153 437.568 166.097 423.595 166.097 406.358C166.097 389.122 152.153 375.149 134.954 375.149C117.754 375.149 103.811 389.122 103.811 406.358C103.811 423.595 117.754 437.568 134.954 437.568Z" fill="#2F2E41"/>
<path d="M130.224 430.852H120.763V447.84H130.224V430.852Z" fill="#2F2E41"/>
<path d="M149.146 430.852H139.685V447.84H149.146V430.852Z" fill="#2F2E41"/>
<path d="M128.647 451C133.001 451 136.531 449.673 136.531 448.037C136.531 446.401 133.001 445.074 128.647 445.074C124.293 445.074 120.763 446.401 120.763 448.037C120.763 449.673 124.293 451 128.647 451Z" fill="#2F2E41"/>
<path d="M147.569 450.605C151.923 450.605 155.453 449.278 155.453 447.642C155.453 446.006 151.923 444.679 147.569 444.679C143.215 444.679 139.685 446.006 139.685 447.642C139.685 449.278 143.215 450.605 147.569 450.605Z" fill="#2F2E41"/>
<path d="M104.745 377.335C102.23 366.049 110.268 354.645 122.699 351.863C135.129 349.082 147.245 355.976 149.759 367.262C152.274 378.548 144.036 382.71 131.605 385.491C119.175 388.273 107.259 388.62 104.745 377.335Z" fill="#3F3D56"/>
<path d="M174.887 414.367C176.288 411.713 170.586 405.937 162.151 401.466C153.716 396.995 145.743 395.521 144.343 398.175C142.942 400.828 148.644 406.604 157.079 411.075C165.513 415.547 173.486 417.02 174.887 414.367Z" fill="#2F2E41"/>
<path d="M130.633 249.504C138.403 245.811 143.764 240.835 142.607 238.39C141.451 235.946 134.214 236.958 126.443 240.651C118.673 244.345 113.312 249.32 114.469 251.765C115.626 254.209 122.863 253.197 130.633 249.504Z" fill="#2F2E41"/>
<path d="M64.0843 268.123C69.6052 261.515 72.4026 254.75 70.3326 253.013C68.2626 251.276 62.109 255.225 56.5882 261.833C51.0673 268.441 48.2699 275.206 50.3399 276.943C52.4099 278.68 58.5635 274.731 64.0843 268.123Z" fill="#2F2E41"/>
<path d="M93.4614 290.769C110.661 290.769 124.604 276.796 124.604 259.559C124.604 242.323 110.661 228.35 93.4614 228.35C76.2616 228.35 62.3184 242.323 62.3184 259.559C62.3184 276.796 76.2616 290.769 93.4614 290.769Z" fill="#2F2E41"/>
<path d="M89.7405 284.053H80.2793V301.04H89.7405V284.053Z" fill="#2F2E41"/>
<path d="M108.662 284.053H99.2012V301.04H108.662V284.053Z" fill="#2F2E41"/>
<path d="M88.1636 304.2C92.518 304.2 96.048 302.874 96.048 301.238C96.048 299.601 92.518 298.275 88.1636 298.275C83.8092 298.275 80.2793 299.601 80.2793 301.238C80.2793 302.874 83.8092 304.2 88.1636 304.2Z" fill="#2F2E41"/>
<path d="M107.086 303.805C111.44 303.805 114.97 302.479 114.97 300.842C114.97 299.206 111.44 297.88 107.086 297.88C102.731 297.88 99.2012 299.206 99.2012 300.842C99.2012 302.479 102.731 303.805 107.086 303.805Z" fill="#2F2E41"/>
<path d="M103.239 220.328C100.459 209.105 88.1835 202.5 75.8223 205.576C63.4611 208.652 55.6946 220.244 58.4755 231.467C61.2563 242.69 70.4822 242.726 82.8434 239.65C95.2047 236.574 106.02 231.551 103.239 220.328Z" fill="#DD4A48"/>
<path d="M98.1165 263.379C103.851 263.379 108.5 258.72 108.5 252.974C108.5 247.227 103.851 242.568 98.1165 242.568C92.3821 242.568 87.7334 247.227 87.7334 252.974C87.7334 258.72 92.3821 263.379 98.1165 263.379Z" fill="white"/>
<path d="M98.7687 260.684C100.68 260.684 102.23 259.131 102.23 257.215C102.23 255.3 100.68 253.747 98.7687 253.747C96.8572 253.747 95.3076 255.3 95.3076 257.215C95.3076 259.131 96.8572 260.684 98.7687 260.684Z" fill="#3F3D56"/>
<path d="M91.6031 274.652C91.4403 275.549 91.4553 276.468 91.6471 277.359C91.8389 278.249 92.2039 279.093 92.7211 279.842C93.2384 280.591 93.8978 281.231 94.6618 281.724C95.4257 282.218 96.2792 282.556 97.1735 282.719C98.0679 282.883 98.9855 282.868 99.874 282.675C100.763 282.483 101.605 282.117 102.352 281.599C103.1 281.081 103.738 280.42 104.231 279.654C104.723 278.889 105.061 278.033 105.223 277.137L105.226 277.124C105.907 273.354 102.998 272.02 99.2366 271.337C95.4747 270.655 92.2841 270.883 91.6031 274.652Z" fill="white"/>
<path d="M498.139 450.731L15.9954 450.953C15.8821 450.954 15.7698 450.932 15.6651 450.888C15.5603 450.845 15.4651 450.782 15.3849 450.702C15.3047 450.621 15.241 450.526 15.1976 450.421C15.1542 450.316 15.1318 450.204 15.1318 450.09C15.1318 449.977 15.1542 449.865 15.1976 449.76C15.241 449.655 15.3047 449.56 15.3849 449.479C15.4651 449.399 15.5603 449.336 15.6651 449.293C15.7698 449.249 15.8821 449.227 15.9954 449.228L498.139 449.005C498.367 449.006 498.585 449.097 498.746 449.259C498.907 449.42 498.997 449.639 498.997 449.868C498.997 450.096 498.907 450.315 498.746 450.477C498.585 450.639 498.367 450.73 498.139 450.731Z" fill="#CACACA"/>
</g>
<defs>
<clipPath id="clip0_16_190">
<rect width="499" height="451" fill="white"/>
</clipPath>
</defs>
</svg>
