<svg width="254" height="308" viewBox="0 0 254 308" fill="none" xmlns="http://www.w3.org/2000/svg">
<path d="M147.718 31.64C170.584 48.738 191.596 66.454 212.814 90.556C234.238 114.864 255.868 145.558 253.19 173.368C250.512 201.384 223.32 226.722 197.364 248.352C171.408 269.982 146.482 288.11 118.054 298.616C89.832 308.916 57.696 311.8 34.212 298.822C10.934 286.05 -4.10397 257.21 -23.262 233.108C-42.42 209.212 -65.904 189.848 -80.942 162.244C-95.98 134.846 -102.366 98.796 -85.68 78.196C-68.994 57.596 -29.236 52.24 1.45804 38.644C32.152 25.048 53.576 3.21201 76.648 0.534013C99.926 -2.14399 124.646 14.542 147.718 31.64Z" fill="#E7E281"/>
</svg>
