<svg width="416" height="392" viewBox="0 0 416 392" fill="none" xmlns="http://www.w3.org/2000/svg">
<path d="M294.287 73.632C321.704 102.037 350.109 117.598 375.303 143.533C400.497 169.221 422.48 205.036 413.588 233.441C404.696 261.846 364.929 282.594 337.018 312.481C309.107 342.368 293.299 381.394 267.858 389.298C242.417 397.449 207.59 374.478 167.082 365.339C126.574 355.953 80.385 360.399 48.275 341.874C16.412 323.596 -1.61901 282.594 0.603988 243.815C2.82699 205.036 25.551 168.48 49.263 138.84C72.975 109.2 97.675 86.476 125.586 58.565C153.25 30.407 184.125 -2.93799 212.53 0.767006C241.182 4.47201 267.117 45.474 294.287 73.632Z" fill="#F5EEDC" fill-opacity="1.0"/>
</svg>
