<svg width="417" height="449" viewBox="0 0 417 449" fill="none" xmlns="http://www.w3.org/2000/svg">
<path d="M339.986 76.6395C373.353 106.998 403.711 133.801 413.01 166.621C422.583 199.168 411.369 238.005 406.446 278.209C401.797 318.14 403.164 359.712 385.387 391.438C367.883 422.891 331.507 444.497 294.585 447.779C257.662 451.335 220.193 436.839 178.074 428.634C135.955 420.429 89.4597 418.514 55.8192 396.361C22.1787 373.934 1.39264 331.268 0.572137 289.149C-0.521863 247.03 18.6231 205.185 36.1271 161.151C53.6311 117.118 69.7676 70.6225 102.314 39.9905C134.861 9.35851 183.544 -5.9575 226.483 3.3415C269.423 12.6405 306.345 46.5545 339.986 76.6395Z" fill="#4F091D" fill-opacity="0.7"/>
</svg>
